<svg width="55" height="64" viewBox="0 0 55 64" fill="none" xmlns="http://www.w3.org/2000/svg">
<path d="M42.1394 47.3615H22.3602V51.8628H42.1394V47.3615Z" fill="white"/>
<path d="M17.4155 47.3615H12.4707V51.8628H17.4155V47.3615Z" fill="white"/>
<path d="M42.1394 36.1082H22.3602V40.6095H42.1394V36.1082Z" fill="white"/>
<path d="M17.4155 36.1082H12.4707V40.6095H17.4155V36.1082Z" fill="white"/>
<path d="M42.1394 24.8549H22.3602V29.3562H42.1394V24.8549Z" fill="white"/>
<path d="M17.4155 24.8549H12.4707V29.3562H17.4155V24.8549Z" fill="white"/>
<path d="M49.5569 6.84968H42.1397V4.59903C42.1397 3.40521 41.6188 2.26028 40.6914 1.41612C39.7641 0.571961 38.5064 0.0977173 37.195 0.0977173H17.4158C16.1043 0.0977173 14.8466 0.571961 13.9193 1.41612C12.992 2.26028 12.471 3.40521 12.471 4.59903V6.84968H5.0538C3.74236 6.84968 2.48463 7.32393 1.5573 8.16809C0.629976 9.01225 0.109009 10.1572 0.109009 11.351V58.6148C0.109009 59.8086 0.629976 60.9535 1.5573 61.7977C2.48463 62.6418 3.74236 63.1161 5.0538 63.1161H49.5569C50.8684 63.1161 52.1261 62.6418 53.0534 61.7977C53.9808 60.9535 54.5017 59.8086 54.5017 58.6148V11.351C54.5017 10.1572 53.9808 9.01225 53.0534 8.16809C52.1261 7.32393 50.8684 6.84968 49.5569 6.84968ZM17.4158 4.59903H37.195V13.6016H17.4158V4.59903ZM49.5569 58.6148H5.0538V11.351H12.471V18.103H42.1397V11.351H49.5569V58.6148Z" fill="white"/>
</svg>
