<svg width="63" height="59" viewBox="0 0 63 59" fill="none" xmlns="http://www.w3.org/2000/svg">
<g clip-path="url(#clip0_27_103)">
<path fill-rule="evenodd" clip-rule="evenodd" d="M62.2595 6.25446V20.8579C62.2595 22.4701 60.8815 23.7786 59.1835 23.7786C57.4856 23.7786 56.1075 22.4701 56.1075 20.8579V9.17515C56.1075 7.56293 54.7295 6.25446 53.0315 6.25446H40.7275C39.0296 6.25446 37.6515 4.94599 37.6515 3.33377C37.6515 1.72155 39.0296 0.413086 40.7275 0.413086H56.1075C59.5065 0.413086 62.2595 3.0271 62.2595 6.25446ZM56.1075 58.8269H40.7275C39.0296 58.8269 37.6515 57.5184 37.6515 55.9062C37.6515 54.294 39.0296 52.9855 40.7275 52.9855H53.0315C54.7295 52.9855 56.1075 51.677 56.1075 50.0648V38.382C56.1075 36.7698 57.4856 35.4614 59.1835 35.4614C60.8815 35.4614 62.2595 36.7698 62.2595 38.382V52.9855C62.2595 56.2128 59.5065 58.8269 56.1075 58.8269ZM0.739502 52.9855V38.382C0.739502 36.7698 2.11755 35.4614 3.8155 35.4614C5.51345 35.4614 6.8915 36.7698 6.8915 38.382V50.0648C6.8915 51.677 8.26955 52.9855 9.9675 52.9855H22.2715C23.9695 52.9855 25.3475 54.294 25.3475 55.9062C25.3475 57.5184 23.9695 58.8269 22.2715 58.8269H6.8915C3.49252 58.8269 0.739502 56.2128 0.739502 52.9855ZM0.739502 20.8579V6.25446C0.739502 3.0271 3.49252 0.413086 6.8915 0.413086H22.2715C23.9695 0.413086 25.3475 1.72155 25.3475 3.33377C25.3475 4.94599 23.9695 6.25446 22.2715 6.25446H9.9675C8.26955 6.25446 6.8915 7.56293 6.8915 9.17515V20.8579C6.8915 22.4701 5.51345 23.7786 3.8155 23.7786C2.11755 23.7786 0.739502 22.4701 0.739502 20.8579ZM0.770245 29.62L0.739502 29.6485V29.5915L0.770245 29.62ZM31.4995 35.4614C28.1067 35.4614 25.3475 32.8415 25.3475 29.62C25.3475 26.3985 28.1067 23.7786 31.4995 23.7786C34.8923 23.7786 37.6515 26.3985 37.6515 29.62C37.6515 32.8415 34.8923 35.4614 31.4995 35.4614ZM43.3698 32.5407H46.8795C48.5775 32.5407 49.9555 31.2322 49.9555 29.62C49.9555 28.0078 48.5775 26.6993 46.8795 26.6993H43.3698C42.2532 22.6074 38.885 19.4096 34.5755 18.3494V15.0165C34.5755 13.4043 33.1975 12.0958 31.4995 12.0958C29.8016 12.0958 28.4235 13.4043 28.4235 15.0165V18.3494C24.114 19.4096 20.7458 22.6074 19.6292 26.6993H16.1195C14.4216 26.6993 13.0435 28.0078 13.0435 29.62C13.0435 31.2322 14.4216 32.5407 16.1195 32.5407H19.6292C20.7458 36.6325 24.114 39.8304 28.4235 40.8906V44.2234C28.4235 45.8356 29.8016 47.1441 31.4995 47.1441C33.1975 47.1441 34.5755 45.8356 34.5755 44.2234V40.8906C38.885 39.8304 42.2532 36.6325 43.3698 32.5407Z" fill="white"/>
</g>
<defs>
<clipPath id="clip0_27_103">
<rect width="61.52" height="58.4138" fill="white" transform="translate(0.739502 0.413086)"/>
</clipPath>
</defs>
</svg>
