<svg width="72" height="64" viewBox="0 0 72 64" fill="none" xmlns="http://www.w3.org/2000/svg">
<path d="M56.4359 5.45724C53.0719 5.05561 48.6375 5.05099 42.3959 5.05099C41.0401 5.05099 39.9409 4.07493 39.9409 2.87093C39.9409 1.66692 41.0401 0.690858 42.3959 0.690858H42.5805C48.5962 0.6908 53.3609 0.690771 57.0899 1.136C60.9278 1.59416 64.0339 2.55955 66.4836 4.73485C68.7239 6.72435 69.9475 8.61657 70.5216 11.5388C71.0378 14.1657 71.0378 17.7085 71.0375 22.9383V23.2182C71.0375 24.4223 69.9383 25.3983 68.5825 25.3983C67.2267 25.3983 66.1275 24.4223 66.1275 23.2182C66.1275 17.6399 66.118 14.4939 65.6846 12.2884C65.3003 10.3316 64.6061 9.23393 63.0116 7.81793C61.6264 6.58777 59.7288 5.85044 56.4359 5.45724Z" fill="white"/>
<path d="M5.57116 40.6588C5.57116 39.4548 4.47201 38.4788 3.11616 38.4788C1.76029 38.4788 0.661171 39.4548 0.661171 40.6588L0.661139 40.9387C0.660975 46.1686 0.660877 49.7113 1.17708 52.3382C1.75129 55.2603 2.97476 57.1526 5.21515 59.1423C7.66477 61.3174 10.771 62.2828 14.6087 62.7412C18.3377 63.1862 23.1025 63.1862 29.1181 63.1862H29.3027C30.6585 63.1862 31.7577 62.2101 31.7577 61.0061C31.7577 59.8021 30.6585 58.8261 29.3027 58.8261C23.0611 58.8261 18.6268 58.8214 15.2629 58.4197C11.9697 58.0267 10.0723 57.2893 8.68703 56.0591C7.09247 54.6432 6.39846 53.5454 6.01397 51.5888C5.58058 49.3832 5.57116 46.2372 5.57116 40.6588Z" fill="white"/>
<path d="M71.0375 40.6588C71.0375 39.4548 69.9383 38.4788 68.5825 38.4788C67.2267 38.4788 66.1275 39.4548 66.1275 40.6588C66.1275 46.2372 66.118 49.3832 65.6846 51.5888C65.3003 53.5454 64.6061 54.6432 63.0116 56.0591C61.6264 57.2893 59.7288 58.0267 56.4359 58.4197C53.0719 58.8214 48.6375 58.8261 42.3959 58.8261C41.0401 58.8261 39.9409 59.8021 39.9409 61.0061C39.9409 62.2101 41.0401 63.1862 42.3959 63.1862H42.5805C48.5962 63.1862 53.3609 63.1862 57.0899 62.7412C60.9278 62.2828 64.0339 61.3174 66.4836 59.1423C68.7239 57.1526 69.9475 55.2603 70.5216 52.3382C71.0378 49.7113 71.0378 46.1686 71.0375 40.9387V40.6588Z" fill="white"/>
<path d="M29.3027 0.690858H29.1181C23.1025 0.6908 18.3377 0.690771 14.6087 1.136C10.771 1.59416 7.66477 2.55955 5.21515 4.73485C2.97476 6.72435 1.75129 8.61657 1.17708 11.5388C0.660877 14.1657 0.660975 17.7084 0.661139 22.9381L0.661171 23.2182C0.661171 24.4223 1.76029 25.3983 3.11616 25.3983C4.47201 25.3983 5.57116 24.4223 5.57116 23.2182C5.57116 17.6399 5.58058 14.4939 6.01397 12.2884C6.39846 10.3316 7.09247 9.23393 8.68703 7.81793C10.0723 6.58777 11.9697 5.85044 15.2629 5.45724C18.6268 5.05561 23.0611 5.05099 29.3027 5.05099C30.6585 5.05099 31.7577 4.07493 31.7577 2.87093C31.7577 1.66692 30.6585 0.690858 29.3027 0.690858Z" fill="white"/>
<path fill-rule="evenodd" clip-rule="evenodd" d="M35.8495 23.9449C30.878 23.9449 26.8479 27.5237 26.8479 31.9385C26.8479 36.3533 30.878 39.9321 35.8495 39.9321C40.821 39.9321 44.8511 36.3533 44.8511 31.9385C44.8511 27.5237 40.821 23.9449 35.8495 23.9449ZM31.7579 31.9385C31.7579 29.9317 33.5896 28.3051 35.8495 28.3051C38.1094 28.3051 39.9412 29.9317 39.9412 31.9385C39.9412 33.9454 38.1094 35.572 35.8495 35.572C33.5896 35.572 31.7579 33.9454 31.7579 31.9385Z" fill="white"/>
<path fill-rule="evenodd" clip-rule="evenodd" d="M13.9977 24.5277C18.1547 20.2457 25.2972 15.2246 35.8492 15.2246C46.4011 15.2246 53.5438 20.2457 57.7006 24.5277L57.8063 24.6365C58.6934 25.5495 59.6057 26.4883 60.2325 27.6135C60.9333 28.8713 61.2174 30.2218 61.2174 31.9385C61.2174 33.6552 60.9333 35.0057 60.2325 36.2635C59.6057 37.3887 58.6934 38.3275 57.8063 39.2406L57.7006 39.3493C53.5438 43.6312 46.4011 48.6523 35.8492 48.6523C25.2972 48.6523 18.1547 43.6312 13.9977 39.3493L13.8921 39.2406C13.005 38.3275 12.0927 37.3887 11.4659 36.2635C10.7649 35.0057 10.481 33.6552 10.481 31.9385C10.481 30.2218 10.7649 28.8713 11.4659 27.6135C12.0927 26.4883 13.005 25.5495 13.8921 24.6365L13.9977 24.5277ZM35.8492 19.5848C27.2371 19.5848 21.3366 23.6457 17.7165 27.3746C16.6888 28.4332 16.1886 28.9692 15.8666 29.5471C15.5938 30.0366 15.3909 30.677 15.3909 31.9385C15.3909 33.2 15.5938 33.8404 15.8666 34.3299C16.1886 34.9077 16.6888 35.4437 17.7165 36.5024C21.3366 40.2312 27.2371 44.2922 35.8492 44.2922C44.4613 44.2922 50.3618 40.2312 53.9818 36.5024C55.0096 35.4437 55.5098 34.9077 55.8318 34.3299C56.1045 33.8404 56.3075 33.2 56.3075 31.9385C56.3075 30.677 56.1045 30.0366 55.8318 29.5471C55.5098 28.9692 55.0096 28.4332 53.9818 27.3746C50.3618 23.6457 44.4613 19.5848 35.8492 19.5848Z" fill="white"/>
</svg>
